#!OML:ASF H:\MichaelJackson\Top Level 1\Subject 1\Session 1\male.ASF
:FULLY-SPECIFIED
:DEGREES
498
root 7.93389 15.6344 -27.4682 4.15117 -5.30062 -3.46574
lowerback -1.41902 6.07475 3.30358
upperback -1.48737 8.07799 1.60338
thorax -0.517687 4.01906 -0.0930426
lowerneck -7.6636 -6.74193 6.35037
upperneck 10.0366 -9.8704 0.369519
head 4.39398 -4.58899 -1.57389
rclavicle -5.34467e-015 0
rhumerus 14.4771 1.81091 -68.5259
rradius 119.062
rwrist -56.5507
rhand -19.3512 -24.1264
rfingers 7.12502
rthumb 6.96613 -53.9918
lclavicle -5.34467e-015 0
lhumerus -58.146 -4.34522 91.494
lradius 61.746
lwrist 23.4855
lhand -12.1099 12.9663
lfingers 7.12502
lthumb 13.9511 42.4782
rfemur -29.9526 -0.115544 4.2385
rtibia 52.9976
rfoot -9.93805 -10.6131
rtoes -41.5705
lfemur 1.86641 11.7436 -19.6881
ltibia 39.7319
lfoot -43.7621 21.4169
ltoes 8.95248
499
root 7.78968 15.5975 -27.3934 4.05105 -6.16057 -3.9824
lowerback -1.33589 6.25262 3.31752
upperback -1.39074 8.31684 1.80599
thorax -0.486957 4.14041 0.104889
lowerneck -7.85131 -6.62566 6.06338
upperneck 10.1248 -9.69913 0.368585
head 4.48413 -4.51107 -1.53097
rclavicle 3.11902e-014 -1.55052e-014
rhumerus 12.7938 2.53779 -69.8404
rradius 117.888
rwrist -56.4507
rhand -20.0191 -24.8763
rfingers 7.12502
rthumb 6.32142 -54.762
lclavicle 3.11902e-014 -1.55052e-014
lhumerus -58.069 -3.72631 91.5779
lradius 58.8662
lwrist 22.4233
lhand -11.1042 13.6736
lfingers 7.12502
lthumb 14.9201 43.1162
rfemur -29.2135 -1.83673 5.98547
rtibia 52.5965
rfoot -11.7575 -12.2286
rtoes -40.2998
lfemur 2.19855 11.6514 -18.9149
ltibia 40.3559
lfoot -44.3049 22.7079
ltoes 7.55816
500
root 7.64635 15.5667 -27.3206 3.9774 -7.08247 -4.59408
lowerback -1.16281 6.42336 3.43966
upperback -1.29704 8.55006 2.02478
thorax -0.49789 4.25748 0.249773
lowerneck -8.05226 -6.46841 5.8413
upperneck 10.1287 -9.47113 0.318331
head 4.542 -4.40854 -1.50942
rclavicle 6.0797e-014 2.38542e-014
rhumerus 11.4518 3.26139 -71.041
rradius 116.518
rwrist -56.4647
rhand -20.7062 -25.7769
rfingers 7.12502
rthumb 5.65802 -55.6814
lclavicle 6.0797e-014 2.38542e-014
lhumerus -58.1962 -3.08123 91.5548
lradius 56.2915
lwrist 21.2137
lhand -10.0687 14.1081
lfingers 7.12502
lthumb 15.9175 43.474
rfemur -28.5774 -3.20843 7.69227
rtibia 52.206
rfoot -13.4046 -13.3483
rtoes -38.8509
lfemur 2.45334 11.6545 -18.0264
ltibia 41.1596
lfoot -44.6865 23.9574
ltoes 5.95359
501
root 7.5043 15.543 -27.2503 3.95028 -8.03278 -5.29246
lowerback -0.915146 6.57985 3.66246
upperback -1.21701 8.76885 2.24918
thorax -0.55149 4.36579 0.335601
lowerneck -8.22791 -6.27828 5.70172
upperneck 10.0374 -9.19849 0.232874
head 4.55523 -4.28634 -1.5059
rclavicle -2.10567e-013 -2.90226e-014
rhumerus 10.4471 3.96217 -72.1254
rradius 115.016
rwrist -56.6545
rhand -21.4656 -26.8233
rfingers 7.12502
rthumb 4.92483 -56.746
lclavicle -2.10567e-013 -2.90226e-014
lhumerus -58.5133 -2.48037 91.4843
lradius 53.9596
lwrist 19.9135
lhand -9.09618 14.0487
lfingers 7.12502
lthumb 16.8538 43.3373
rfemur -28.0313 -4.20561 9.32229
rtibia 51.8266
rfoot -14.8538 -13.968
rtoes -37.5573
lfemur 2.5606 11.7251 -17.0305
ltibia 42.2239
lfoot -44.8496 25.1467
ltoes 4.14177
502
root 7.36511 15.5275 -27.1818 3.97908 -8.95913 -6.0012
lowerback -0.631571 6.71627 3.92474
upperback -1.1522 8.96475 2.45062
thorax -0.631594 4.46157 0.370606
lowerneck -8.36662 -6.07205 5.64545
upperneck 9.85516 -8.9065 0.131396
head 4.52363 -4.15546 -1.51545
rclavicle 4.90532e-014 2.5842e-015
rhumerus 9.75762 4.59571 -73.0798
rradius 113.404
rwrist -56.9484
rhand -22.2393 -27.8869
rfingers 7.12502
rthumb 4.17765 -57.8257
lclavicle 4.90532e-014 2.5842e-015
lhumerus -58.9719 -1.99237 91.4229
lradius 51.8097
lwrist 18.5216
lhand -8.28055 13.4963
lfingers 7.12502
lthumb 17.6389 42.7162
rfemur -27.5585 -4.91559 10.7797
rtibia 51.4602
rfoot -16.1651 -14.06
rtoes -36.6171
lfemur 2.448 11.8207 -16.0167
ltibia 43.6254
lfoot -44.7029 26.2854
ltoes 2.09049
503
root 7.22958 15.5213 -27.1168 4.06676 -9.77925 -6.70592
lowerback -0.328279 6.82807 4.20655
upperback -1.10305 9.13153 2.63117
thorax -0.732675 4.54188 0.369444
lowerneck -8.47005 -5.87561 5.65656
upperneck 9.5982 -8.63111 0.0282207
head 4.45432 -4.03268 -1.5336
rclavicle -8.3884e-014 -2.50469e-014
rhumerus 9.34892 5.11227 -73.8701
rradius 111.721
rwrist -57.2444
rhand -22.927 -28.8337
rfingers 7.12502
rthumb 3.51362 -58.7845
lclavicle -8.3884e-014 -2.50469e-014
lhumerus -59.5036 -1.67274 91.4359
lradius 49.7801
lwrist 17.0492
lhand -7.63697 12.5553
lfingers 7.12502
lthumb 18.2581 41.7184
rfemur -27.1393 -5.44283 12.0711
rtibia 51.1006
rfoot -17.3649 -13.6499
rtoes -35.8959
lfemur 2.02716 11.8551 -15.0039
ltibia 45.4409
lfoot -44.1336 27.3742
ltoes -0.178781
504
root 7.09944 15.5252 -27.0547 4.20414 -10.4352 -7.39802
lowerback -0.0187007 6.91224 4.51005
upperback -1.05342 9.26393 2.79338
thorax -0.830657 4.60448 0.336786
lowerneck -8.58676 -5.7044 5.69903
upperneck 9.28723 -8.39647 -0.0445646
head 4.36744 -3.92839 -1.54806
rclavicle 2.67427e-015 -2.52457e-014
rhumerus 9.21007 5.48071 -74.4757
rradius 109.994
rwrist -57.4319
rhand -23.4613 -29.5375
rfingers 7.12502
rthumb 2.99764 -59.4962
lclavicle 2.67427e-015 -2.52457e-014
lhumerus -60.0207 -1.52756 91.5409
lradius 47.8543
lwrist 15.4142
lhand -7.08687 11.4474
lfingers 7.12502
lthumb 18.7873 40.5602
rfemur -26.7367 -5.92507 13.2225
rtibia 50.7281
rfoot -18.4837 -12.802
rtoes -35.278
lfemur 1.24454 11.7497 -14.0123
ltibia 47.7193
lfoot -43.0407 28.3974
ltoes -2.4334
505
root 6.97541 15.5397 -26.9959 4.38053 -10.8412 -8.08576
lowerback 0.284201 6.96678 4.84576
upperback -1.01453 9.35941 2.95094
thorax -0.93064 4.64786 0.28202
lowerneck -8.71169 -5.59163 5.75529
upperneck 8.96731 -8.24418 -0.104056
head 4.27679 -3.86348 -1.565
rclavicle -1.05107e-013 -3.67752e-014
rhumerus 9.25729 5.66086 -74.8765
rradius 108.258
rwrist -57.3994
rhand -23.7638 -29.9092
rfingers 7.12502
rthumb 2.70546 -59.8718
lclavicle -1.05107e-013 -3.67752e-014
lhumerus -60.5148 -1.56939 91.7573
lradius 46.0375
lwrist 13.6037
lhand -6.55456 10.3346
lfingers 7.12502
lthumb 19.2992 39.397
rfemur -26.3079 -6.51495 14.2946
rtibia 50.309
rfoot -19.5016 -11.6547
rtoes -34.7115
lfemur 0.0491746 11.4117 -13.0304
ltibia 50.4852
lfoot -41.3196 29.289
ltoes -4.29242
506
root 6.85755 15.5648 -26.9408 4.59966 -10.9566 -8.79746
lowerback 0.578765 6.98845 5.23124
upperback -0.973479 9.41342 3.11917
thorax -1.01855 4.67001 0.212982
lowerneck -8.93536 -5.53963 5.80207
upperneck 8.67597 -8.1832 -0.135072
head 4.21525 -3.84076 -1.58117
rclavicle -1.98847e-014 3.16068e-014
rhumerus 9.48813 5.63314 -75.0768
rradius 106.538
rwrist -57.0925
rhand -23.7837 -29.8701
rfingers 7.12502
rthumb 2.68622 -59.8329
lclavicle -1.98847e-014 3.16068e-014
lhumerus -60.9293 -1.76103 92.0512
lradius 44.3753
lwrist 11.6116
lhand -5.80436 9.3966
lfingers 7.12502
lthumb 20.0204 38.3852
rfemur -25.8326 -7.30607 15.3707
rtibia 49.7995
rfoot -20.412 -10.3387
rtoes -33.9555
lfemur -1.59312 10.814 -12.0151
ltibia 53.7099
lfoot -38.8684 29.9555
ltoes -5.18477
507
root 6.74513 15.5982 -26.8904 4.85368 -10.7747 -9.58804
lowerback 0.886173 6.98612 5.72547
upperback -0.944608 9.44173 3.31215
thorax -1.114 4.67757 0.109503
lowerneck -9.16444 -5.55669 5.79471
upperneck 8.36481 -8.21604 -0.0824701
head 4.15036 -3.86217 -1.56473
rclavicle 1.04766e-013 -2.98177e-015
rhumerus 9.82608 5.3772 -75.1008
rradius 104.872
rwrist -56.5324
rhand -23.5595 -29.4476
rfingers 7.12502
rthumb 2.90278 -59.4076
lclavicle 1.04766e-013 -2.98177e-015
lhumerus -61.2961 -2.08084 92.3693
lradius 42.9473
lwrist 9.42408
lhand -4.55609 8.86262
lfingers 7.12502
lthumb 21.2199 37.7211
rfemur -25.3007 -8.33352 16.5652
rtibia 49.1678
rfoot -21.131 -9.08371
rtoes -33.1259
lfemur -3.67024 9.96543 -10.8835
ltibia 57.3327
lfoot -35.7389 30.184
ltoes -4.38102
508
root 6.63769 15.6385 -26.8426 5.12934 -10.3605 -10.4726
lowerback 1.2013 6.97152 6.32973
upperback -0.907579 9.4598 3.54025
thorax -1.19442 4.67892 -0.0158331
lowerneck -9.47805 -5.62841 5.74599
upperneck 8.06636 -8.32821 0.0287845
head 4.10868 -3.91992 -1.53035
rclavicle -8.82604e-014 -6.32135e-014
rhumerus 10.2768 4.91364 -74.9827
rradius 103.268
rwrist -55.7706
rhand -23.0918 -28.695
rfingers 7.12502
rthumb 3.35446 -58.6484
lclavicle -8.82604e-014 -6.32135e-014
lhumerus -61.6099 -2.47265 92.67
lradius 41.8202
lwrist 7.1583
lhand -2.76907 8.68947
lfingers 7.12502
lthumb 22.9356 37.3452
rfemur -24.7037 -9.53319 17.9033
rtibia 48.3974
rfoot -21.6808 -7.98022
rtoes -32.3313
lfemur -6.10837 8.96286 -9.6013
ltibia 61.2437
lfoot -32.0858 29.8301
ltoes -1.5212
509
root 6.53386 15.6832 -26.7986 5.43407 -9.75979 -11.4412
lowerback 1.52651 6.9539 7.02683
upperback -0.883953 9.48275 3.79526
thorax -1.28436 4.68077 -0.163894
lowerneck -9.79365 -5.74798 5.65034
upperneck 7.74227 -8.50356 0.212487
head 4.06164 -4.00712 -1.46689
rclavicle -3.44767e-014 7.7526e-015
rhumerus 10.7859 4.25939 -74.7726
rradius 101.741
rwrist -54.9068
rhand -22.4736 -27.733
rfingers 7.12502
rthumb 3.95146 -57.6761
lclavicle -3.44767e-014 7.7526e-015
lhumerus -61.9338 -2.91285 92.9226
lradius 41.0748
lwrist 4.92776
lhand -0.371461 8.88484
lfingers 7.12502
lthumb 25.2345 37.2362
rfemur -24.0784 -10.794 19.3753
rtibia 47.4997
rfoot -22.0683 -7.11643
rtoes -31.7316
lfemur -8.87283 7.87935 -8.16469
ltibia 65.3209
lfoot -28.1723 28.789
ltoes 2.9075
510
root 6.43275 15.7293 -26.7574 5.73981 -9.09579 -12.454
lowerback 1.88174 6.95377 7.77198
upperback -0.865228 9.53977 4.06134
thorax -1.38877 4.69782 -0.329
lowerneck -10.0811 -5.8959 5.52502
upperneck 7.36685 -8.71351 0.457371
head 3.99438 -4.11072 -1.37759
rclavicle -7.03201e-015 2.48481e-014
rhumerus 11.3427 3.46088 -74.5324
rradius 100.281
rwrist -54.0391
rhand -21.7653 -26.674
rfingers 7.12502
rthumb 4.63536 -56.6033
lclavicle -7.03201e-015 2.48481e-014
lhumerus -62.2962 -3.36665 93.1056
lradius 40.7443
lwrist 2.85803
lhand 2.62302 9.28724
lfingers 7.12502
lthumb 28.1003 37.2022
rfemur -23.4358 -11.9266 20.914
rtibia 46.4968
rfoot -22.3166 -6.46438
rtoes -31.1916
lfemur -11.833 6.84431 -6.61181
ltibia 69.4162
lfoot -24.3941 26.9698
ltoes 8.33996
511
root 6.33373 15.7757 -26.7187 6.03051 -8.4759 -13.47
lowerback 2.2753 6.98654 8.50739
upperback -0.839405 9.65122 4.32919
thorax -1.50526 4.74098 -0.490736
lowerneck -10.3071 -6.05577 5.38888
upperneck 6.91358 -8.93256 0.739088
head 3.89026 -4.22012 -1.27013
rclavicle 7.03201e-015 3.77691e-015
rhumerus 11.9532 2.57225 -74.3087
rradius 98.8699
rwrist -53.245
rhand -21.0455 -25.6493
rfingers 7.12502
rthumb 5.33045 -55.5622
lclavicle 7.03201e-015 3.77691e-015
lhumerus -62.7078 -3.80587 93.2359
lradius 40.8087
lwrist 1.1514
lhand 5.78503 9.98824
lfingers 7.12502
lthumb 31.1185 37.3671
rfemur -22.7891 -12.7853 22.4607
rtibia 45.4224
rfoot -22.4306 -6.0258
rtoes -30.6769
lfemur -14.8906 5.99329 -4.99899
ltibia 73.4019
lfoot -20.9903 24.4397
ltoes 13.362
512
root 6.23766 15.8232 -26.6778 6.27483 -8.00093 -14.411
lowerback 2.68868 7.06254 9.16592
upperback -0.780931 9.824 4.57444
thorax -1.60144 4.81619 -0.6348
lowerneck -10.4653 -6.20852 5.25605
upperneck 6.37797 -9.13451 1.03994
head 3.74633 -4.32335 -1.15098
rclavicle -1.68222e-014 -3.57812e-015
rhumerus 12.6164 1.65393 -74.148
rradius 97.484
rwrist -52.571
rhand -20.4037 -24.7567
rfingers 7.12502
rthumb 5.95004 -54.6532
lclavicle -1.68222e-014 -3.57812e-015
lhumerus -63.1656 -4.20196 93.3218
lradius 41.2145
lwrist -0.064147
lhand 8.84342 10.9136
lfingers 7.12502
lthumb 34.0285 37.691
rfemur -22.0973 -13.3443 23.9002
rtibia 44.2988
rfoot -22.4481 -5.75487
rtoes -30.2192
lfemur -17.8825 5.3999 -3.45479
ltibia 77.1518
lfoot -18.2415 21.2928
ltoes 17.4414
